# xmcd
#
# Track frame offsets:
# 150
# 15602
# 32341
# 50431
# 64814
# 83957
# 101247
# 114712
# 130750
# 145565
# 162142
# 176890
# 187487
#
# Disc length: 2681 seconds
#
#
# Revision: 1
# Processed by: cddbd v1.5.2PL0 Copyright (c) Steve Scherf et al.
# Submitted via: FreeRIP 2.52 
#
DISCID=b40a770d
DTITLE=Chantal Pary and Carl William - Noel  (428)
DYEAR=2003
DGENRE=Noel
TTITLE0=Sainte Nuit
TTITLE1=Les enfants oubliés
TTITLE2=Ave Maria de Schubert
TTITLE3=Valse de Noel
TTITLE4=Minuit,Chrétiens
TTITLE5=Blue christmas
TTITLE6=père noel arrive ce soir
TTITLE7=lettre au papa noel
TTITLE8=petit papa Noel
TTITLE9=Adeste,Fideles
TTITLE10=c'est Noel,mon petit
TTITLE11=please come home for christmas
TTITLE12=Glory Alléluia
EXTD=YEAR: 2003
EXTT0=
EXTT1=
EXTT2=
EXTT3=
EXTT4=
EXTT5=
EXTT6=
EXTT7=
EXTT8=
EXTT9=
EXTT10=
EXTT11=
EXTT12=
PLAYORDER=
